<svg width="192" height="24" viewBox="0 0 192 24" fill="none" xmlns="http://www.w3.org/2000/svg">
<path d="M5.57073 11.3551H9.41011C9.97658 11.3551 10.5221 11.3132 11.0466 11.2292C11.5711 11.1453 12.0326 10.988 12.4313 10.7572C12.8299 10.5054 13.1446 10.1593 13.3754 9.71867C13.6271 9.27808 13.753 8.70113 13.753 7.9878C13.753 7.27447 13.6271 6.69751 13.3754 6.25693C13.1446 5.81634 12.8299 5.48066 12.4313 5.24988C12.0326 4.99812 11.5711 4.83027 11.0466 4.74635C10.5221 4.66243 9.97658 4.62047 9.41011 4.62047H5.57073V11.3551ZM0.629883 0.781088H10.7633C12.169 0.781088 13.3649 0.990891 14.351 1.4105C15.337 1.80912 16.1343 2.34412 16.7427 3.01548C17.3721 3.68685 17.8232 4.45263 18.0959 5.31282C18.3897 6.17301 18.5365 7.06467 18.5365 7.9878C18.5365 8.88995 18.3897 9.78161 18.0959 10.6628C17.8232 11.523 17.3721 12.2887 16.7427 12.9601C16.1343 13.6315 15.337 14.177 14.351 14.5966C13.3649 14.9952 12.169 15.1945 10.7633 15.1945H5.57073V23.2509H0.629883V0.781088Z" fill="#3B3B3B"/>
<path d="M23.5086 0.781088H28.4494V19.0968H39.4011V23.2509H23.5086V0.781088Z" fill="#3B3B3B"/>
<path d="M63.1226 14.7539C63.1226 17.7961 62.2729 20.0619 60.5735 21.5515C58.8741 23.0201 56.5243 23.7544 53.5242 23.7544C50.482 23.7544 48.1218 23.0201 46.4433 21.5515C44.7859 20.0829 43.9572 17.817 43.9572 14.7539V0.781088H48.898V14.7539C48.898 15.3624 48.9505 15.9603 49.0554 16.5477C49.1603 17.1352 49.3806 17.6597 49.7163 18.1213C50.0519 18.5618 50.5135 18.929 51.1009 19.2227C51.7094 19.4955 52.5171 19.6318 53.5242 19.6318C55.2865 19.6318 56.5034 19.2437 57.1747 18.4674C57.8461 17.6702 58.1818 16.4323 58.1818 14.7539V0.781088H63.1226V14.7539Z" fill="#3B3B3B"/>
<path d="M72.6333 15.7924C72.6333 16.5477 72.7697 17.1876 73.0424 17.7121C73.3152 18.2366 73.6718 18.6667 74.1124 19.0024C74.574 19.3171 75.109 19.5584 75.7174 19.7262C76.3258 19.8731 76.9552 19.9465 77.6056 19.9465C78.0462 19.9465 78.5183 19.9151 79.0218 19.8521C79.5253 19.7682 79.9974 19.6213 80.438 19.4115C80.8785 19.2017 81.2457 18.9185 81.5394 18.5618C81.8331 18.1842 81.98 17.7121 81.98 17.1457C81.98 16.5372 81.7807 16.0442 81.3821 15.6666C81.0044 15.2889 80.5009 14.9742 79.8715 14.7225C79.2421 14.4707 78.5288 14.2504 77.7315 14.0616C76.9343 13.8728 76.1265 13.663 75.3083 13.4322C74.4691 13.2224 73.6508 12.9706 72.8536 12.6769C72.0564 12.3622 71.343 11.9636 70.7136 11.481C70.0842 10.9985 69.5702 10.4005 69.1716 9.6872C68.7939 8.95289 68.6051 8.07172 68.6051 7.04369C68.6051 5.88978 68.8464 4.89321 69.3289 4.05401C69.8325 3.19382 70.4828 2.48049 71.2801 1.91402C72.0773 1.34755 72.9795 0.92795 73.9865 0.655207C74.9936 0.382465 76.0006 0.246094 77.0077 0.246094C78.1826 0.246094 79.305 0.382465 80.375 0.655207C81.466 0.90697 82.4311 1.32657 83.2703 1.91402C84.1095 2.50147 84.7704 3.25676 85.2529 4.17989C85.7564 5.08204 86.0082 6.1835 86.0082 7.48427H81.2247C81.1828 6.81291 81.0359 6.25693 80.7841 5.81635C80.5533 5.37576 80.2386 5.02959 79.84 4.77782C79.4414 4.52606 78.9798 4.34773 78.4553 4.24283C77.9518 4.13793 77.3958 4.08548 76.7874 4.08548C76.3888 4.08548 75.9901 4.12744 75.5915 4.21136C75.1929 4.29528 74.8257 4.44214 74.4901 4.65194C74.1754 4.86174 73.9131 5.124 73.7033 5.4387C73.4935 5.75341 73.3886 6.15203 73.3886 6.63458C73.3886 7.07516 73.4725 7.43182 73.6404 7.70457C73.8082 7.97731 74.1334 8.22907 74.6159 8.45985C75.1195 8.69064 75.8013 8.92142 76.6615 9.1522C77.5427 9.38299 78.6861 9.67671 80.0918 10.0334C80.5114 10.1173 81.0883 10.2746 81.8227 10.5054C82.5779 10.7152 83.3227 11.0614 84.057 11.544C84.7914 12.0265 85.4208 12.6769 85.9453 13.4951C86.4908 14.2924 86.7635 15.3204 86.7635 16.5792C86.7635 17.6072 86.5642 18.5618 86.1656 19.443C85.7669 20.3242 85.169 21.09 84.3717 21.7403C83.5955 22.3698 82.6199 22.8628 81.445 23.2194C80.2911 23.5761 78.9484 23.7544 77.4168 23.7544C76.179 23.7544 74.9726 23.5971 73.7977 23.2824C72.6438 22.9887 71.6158 22.5166 70.7136 21.8662C69.8324 21.2158 69.1296 20.3871 68.6051 19.3801C68.0806 18.373 67.8288 17.1771 67.8498 15.7924H72.6333Z" fill="#3B3B3B"/>
<path d="M115.657 20.7018C114.776 21.8348 113.8 22.632 112.73 23.0936C111.66 23.5342 110.58 23.7544 109.489 23.7544C107.768 23.7544 106.216 23.4607 104.831 22.8733C103.467 22.2649 102.313 21.4361 101.369 20.3871C100.425 19.3381 99.7013 18.1108 99.1977 16.7051C98.6942 15.2784 98.4424 13.7469 98.4424 12.1104C98.4424 10.432 98.6942 8.87946 99.1977 7.4528C99.7013 6.00517 100.425 4.74635 101.369 3.67636C102.313 2.60637 103.467 1.76716 104.831 1.15873C106.216 0.550307 107.768 0.246094 109.489 0.246094C110.642 0.246094 111.754 0.424425 112.824 0.781088C113.915 1.11677 114.891 1.6203 115.751 2.29167C116.632 2.96303 117.356 3.79175 117.923 4.77782C118.489 5.7639 118.835 6.89683 118.961 8.17662H114.241C113.947 6.91781 113.38 5.9737 112.541 5.34429C111.702 4.71488 110.684 4.40018 109.489 4.40018C108.377 4.40018 107.432 4.62047 106.656 5.06106C105.88 5.48066 105.251 6.05762 104.768 6.79193C104.285 7.50525 103.929 8.32348 103.698 9.24661C103.488 10.1697 103.383 11.1243 103.383 12.1104C103.383 13.0545 103.488 13.9777 103.698 14.8798C103.929 15.761 104.285 16.5582 104.768 17.2716C105.251 17.9849 105.88 18.5618 106.656 19.0024C107.432 19.422 108.377 19.6318 109.489 19.6318C111.125 19.6318 112.384 19.2227 113.265 18.4045C114.167 17.5653 114.692 16.3589 114.838 14.7854H109.866V11.1034H119.307V23.2509H116.16L115.657 20.7018Z" fill="#C4963C"/>
<path d="M129.151 12.1104C129.151 13.0545 129.256 13.9777 129.466 14.8798C129.696 15.761 130.053 16.5582 130.536 17.2716C131.018 17.9849 131.648 18.5618 132.424 19.0024C133.2 19.422 134.144 19.6318 135.256 19.6318C136.368 19.6318 137.312 19.422 138.088 19.0024C138.865 18.5618 139.494 17.9849 139.977 17.2716C140.459 16.5582 140.805 15.761 141.015 14.8798C141.246 13.9777 141.361 13.0545 141.361 12.1104C141.361 11.1243 141.246 10.1697 141.015 9.24661C140.805 8.32348 140.459 7.50525 139.977 6.79193C139.494 6.05762 138.865 5.48066 138.088 5.06106C137.312 4.62047 136.368 4.40018 135.256 4.40018C134.144 4.40018 133.2 4.62047 132.424 5.06106C131.648 5.48066 131.018 6.05762 130.536 6.79193C130.053 7.50525 129.696 8.32348 129.466 9.24661C129.256 10.1697 129.151 11.1243 129.151 12.1104ZM124.21 12.1104C124.21 10.432 124.462 8.87946 124.965 7.4528C125.469 6.00517 126.193 4.74635 127.137 3.67636C128.081 2.60637 129.235 1.76716 130.599 1.15873C131.983 0.550307 133.536 0.246094 135.256 0.246094C136.997 0.246094 138.55 0.550307 139.914 1.15873C141.277 1.76716 142.431 2.60637 143.375 3.67636C144.32 4.74635 145.043 6.00517 145.547 7.4528C146.05 8.87946 146.302 10.432 146.302 12.1104C146.302 13.7469 146.05 15.2784 145.547 16.7051C145.043 18.1108 144.32 19.3381 143.375 20.3871C142.431 21.4361 141.277 22.2649 139.914 22.8733C138.55 23.4607 136.997 23.7544 135.256 23.7544C133.536 23.7544 131.983 23.4607 130.599 22.8733C129.235 22.2649 128.081 21.4361 127.137 20.3871C126.193 19.3381 125.469 18.1108 124.965 16.7051C124.462 15.2784 124.21 13.7469 124.21 12.1104Z" fill="#C4963C"/>
<path d="M151.568 0.781088H156.509V19.0968H167.46V23.2509H151.568V0.781088Z" fill="#C4963C"/>
<path d="M177.052 19.0968H181.458C182.171 19.0968 182.863 18.9814 183.535 18.7507C184.206 18.5199 184.804 18.1422 185.328 17.6177C185.853 17.0722 186.273 16.3694 186.587 15.5092C186.902 14.649 187.059 13.6 187.059 12.3622C187.059 11.2292 186.944 10.2117 186.713 9.30955C186.503 8.38642 186.147 7.59967 185.643 6.94928C185.14 6.29889 184.468 5.80586 183.629 5.47017C182.811 5.11351 181.793 4.93518 180.576 4.93518H177.052V19.0968ZM172.111 0.781088H181.804C183.251 0.781088 184.594 1.01187 185.832 1.47344C187.091 1.935 188.171 2.62735 189.073 3.55048C189.996 4.47361 190.71 5.62752 191.213 7.01222C191.738 8.39691 192 10.0229 192 11.8901C192 13.5266 191.79 15.0372 191.371 16.4219C190.951 17.8066 190.311 19.0024 189.451 20.0095C188.612 21.0165 187.552 21.8138 186.273 22.4012C185.014 22.9677 183.524 23.2509 181.804 23.2509H172.111V0.781088Z" fill="#C4963C"/>
</svg>
