<svg width="60" height="61" viewBox="0 0 60 61" fill="none" xmlns="http://www.w3.org/2000/svg">
<rect x="1.555" y="1.98982" width="56.7958" height="56.7958" rx="28.3979" fill="white"/>
<rect x="1.555" y="1.98982" width="56.7958" height="56.7958" rx="28.3979" fill="url(#paint0_linear_1_1339)"/>
<rect x="1.555" y="1.98982" width="56.7958" height="56.7958" rx="28.3979" stroke="url(#paint1_linear_1_1339)" stroke-width="2.46938"/>
<path d="M12.4492 24.0234L19.1044 38.8483L45.7284 26.8964L39.0732 12.0715L12.4492 24.0234Z" fill="#FFCE6D"/>
<path d="M12.4492 24.0234L19.1044 38.8483L45.7284 26.8964L39.0732 12.0715L12.4492 24.0234ZM19.9177 36.7017L14.5934 24.8416L38.2591 14.2182L43.5834 26.0782L19.9177 36.7017Z" fill="white"/>
<path d="M36.5596 20.3292C36.1672 20.5053 35.861 20.8305 35.7084 21.2331C35.5557 21.6356 35.5691 22.0827 35.7457 22.4758C35.9222 22.869 36.2473 23.1761 36.6496 23.3295C37.0519 23.483 37.4983 23.4702 37.8907 23.294C38.2831 23.1179 38.5893 22.7927 38.7419 22.3901C38.8946 21.9876 38.8811 21.5405 38.7046 21.1473C38.5281 20.7542 38.2029 20.4471 37.8006 20.2937C37.3984 20.1402 36.9519 20.153 36.5596 20.3292Z" fill="white"/>
<path d="M27.0953 21.0129C25.9185 21.5411 25.0002 22.5163 24.5425 23.7239C24.0848 24.9315 24.1252 26.2726 24.6546 27.4521C25.1841 28.6316 26.1594 29.553 27.3659 30.0135C28.5724 30.4741 29.9114 30.436 31.0882 29.9078C32.2649 29.3795 33.1832 28.4043 33.6409 27.1967C34.0986 25.9892 34.0583 24.6481 33.5288 23.4685C32.9993 22.289 32.024 21.3676 30.8175 20.9071C29.611 20.4466 28.2721 20.4846 27.0953 21.0129Z" fill="white"/>
<path d="M14.2979 23.1933C13.8076 23.4134 13.425 23.8197 13.2343 24.3229C13.0436 24.8261 13.0604 25.3848 13.2811 25.8763C13.5017 26.3678 13.908 26.7517 14.4107 26.9436C14.9134 27.1355 15.4713 27.1196 15.9616 26.8996C16.4519 26.6795 16.8344 26.2732 17.0251 25.77C17.2158 25.2668 17.199 24.7081 16.9784 24.2166C16.7578 23.7251 16.3514 23.3412 15.8487 23.1493C15.346 22.9574 14.7882 22.9733 14.2979 23.1933Z" fill="white"/>
<path d="M37.2276 12.9031C36.7373 13.1231 36.3547 13.5295 36.164 14.0326C35.9733 14.5358 35.9901 15.0945 36.2108 15.586C36.4314 16.0775 36.8377 16.4614 37.3404 16.6533C37.8431 16.8452 38.401 16.8294 38.8913 16.6093C39.3816 16.3892 39.7641 15.9829 39.9548 15.4797C40.1455 14.9766 40.1287 14.4178 39.9081 13.9263C39.6875 13.4348 39.2811 13.0509 38.7784 12.859C38.2757 12.6671 37.7179 12.683 37.2276 12.9031Z" fill="white"/>
<path d="M42.2158 24.0209C41.7256 24.2409 41.343 24.6473 41.1523 25.1504C40.9616 25.6536 40.9784 26.2123 41.199 26.7038C41.4197 27.1953 41.826 27.5792 42.3287 27.7711C42.8314 27.963 43.3892 27.9472 43.8795 27.7271C44.3698 27.507 44.7524 27.1007 44.9431 26.5975C45.1338 26.0944 45.117 25.5356 44.8964 25.0441C44.6757 24.5526 44.2694 24.1687 43.7667 23.9768C43.264 23.7849 42.7061 23.8008 42.2158 24.0209Z" fill="white"/>
<path d="M16.4999 26.6875H45.7499V42.9375H16.4999V26.6875Z" fill="#FFCE6D"/>
<path d="M16.4999 26.6875V42.9375H45.7499V26.6875H16.4999ZM18.1249 41.3125V28.3125H44.1249V41.3125H18.1249Z" fill="white"/>
<path d="M22.1875 33.1873C21.7565 33.1873 21.3432 33.3585 21.0385 33.6632C20.7337 33.968 20.5625 34.3813 20.5625 34.8123C20.5625 35.2432 20.7337 35.6566 21.0385 35.9613C21.3432 36.2661 21.7565 36.4373 22.1875 36.4373C22.6185 36.4373 23.0318 36.2661 23.3365 35.9613C23.6413 35.6566 23.8125 35.2432 23.8125 34.8123C23.8125 34.3813 23.6413 33.968 23.3365 33.6632C23.0318 33.3585 22.6185 33.1873 22.1875 33.1873ZM40.0625 33.1873C39.6315 33.1873 39.2182 33.3585 38.9135 33.6632C38.6087 33.968 38.4375 34.3813 38.4375 34.8123C38.4375 35.2432 38.6087 35.6566 38.9135 35.9613C39.2182 36.2661 39.6315 36.4373 40.0625 36.4373C40.4935 36.4373 40.9068 36.2661 41.2115 35.9613C41.5163 35.6566 41.6875 35.2432 41.6875 34.8123C41.6875 34.3813 41.5163 33.968 41.2115 33.6632C40.9068 33.3585 40.4935 33.1873 40.0625 33.1873ZM31.125 29.9373C29.8321 29.9373 28.5921 30.4509 27.6779 31.3651C26.7636 32.2793 26.25 33.5193 26.25 34.8123C26.25 36.1052 26.7636 37.3452 27.6779 38.2594C28.5921 39.1736 29.8321 39.6873 31.125 39.6873C32.4179 39.6873 33.6579 39.1736 34.5721 38.2594C35.4864 37.3452 36 36.1052 36 34.8123C36 33.5193 35.4864 32.2793 34.5721 31.3651C33.6579 30.4509 32.4179 29.9373 31.125 29.9373ZM44.9375 39.2899C44.5971 39.0324 44.1778 38.8748 43.7188 38.8748C42.5967 38.8748 41.6875 39.7839 41.6875 40.906C41.6875 41.3659 41.8459 41.7851 42.1035 42.1256H44.9375V39.2899ZM18.5312 38.8739C18.0722 38.8739 17.6529 39.0324 17.3125 39.2891V42.1248H20.1465C20.4041 41.7843 20.5625 41.3651 20.5625 40.9052C20.5625 39.7831 19.6533 38.8739 18.5312 38.8739ZM17.3125 30.3346C17.6529 30.5913 18.0722 30.7498 18.5312 30.7498C19.6533 30.7498 20.5625 29.8406 20.5625 28.7185C20.5625 28.2594 20.4041 27.8402 20.1473 27.4998H17.3125V30.3346ZM43.7188 30.7498C44.1778 30.7498 44.5971 30.5913 44.9375 30.3346V27.4998H42.1027C41.8459 27.8402 41.6875 28.2594 41.6875 28.7185C41.6875 29.8406 42.5967 30.7498 43.7188 30.7498Z" fill="white"/>
<defs>
<linearGradient id="paint0_linear_1_1339" x1="79.9579" y1="-25.1734" x2="29.9529" y2="60.0203" gradientUnits="userSpaceOnUse">
<stop stop-color="#FFD889" stop-opacity="0"/>
<stop offset="1" stop-color="#FFCF6E"/>
</linearGradient>
<linearGradient id="paint1_linear_1_1339" x1="79.9579" y1="-25.1734" x2="29.9529" y2="60.0203" gradientUnits="userSpaceOnUse">
<stop stop-color="#FFD889" stop-opacity="0"/>
<stop offset="1" stop-color="#FFCF6E"/>
</linearGradient>
</defs>
</svg>
